<?xml version="1.0" encoding="UTF-8"?><svg id="Layer_1" xmlns="http://www.w3.org/2000/svg" viewBox="0 0 841.89 595.28"><defs><style>.cls-1{fill:#ccc;}</style></defs><path class="cls-1" d="M624.71,281.56c-8.76-35.12-40.79-60.7-77.64-60.7-29.69,0-56.86,16.67-70.62,42.42-5.78-1.8-11.83-2.74-17.9-2.74-29.81,0-54.63,21.78-59.37,50.27-28.93,4.36-51.17,29.39-51.17,59.51,0,33.19,27,60.18,60.18,60.18h203.36c41.39,0,75.06-33.67,75.06-75.06,0-36.62-26.59-67.62-61.9-73.89Zm35.24,73.89c0-25.41-19.85-46.62-45.2-48.28l-13.04-.86-1.83-12.94c-3.69-26.14-26.4-45.84-52.81-45.84-22.27,0-42.41,14.07-50.11,35l-6.38,17.36-16.3-8.73c-4.89-2.62-10.18-3.95-15.74-3.95-18.32,0-33.35,14.9-33.52,33.22v16.75l-16.4-.33c-.29,0-.57-.02-.85-.04-18.27,.23-33.1,15.22-33.1,33.52h-11c0-24.4,19.85-44.37,44.24-44.52h.23l.23,.02c.16,.01,.32,.02,.48,.03l5.17,.1v-5.58c.22-24.38,20.19-44.17,44.52-44.17,7.38,0,14.42,1.77,20.93,5.25l5.15,2.76,2.02-5.48c9.28-25.25,33.57-42.21,60.43-42.21,31.87,0,59.25,23.78,63.71,55.31l.58,4.09,4.12,.27c31.11,2.04,55.47,28.07,55.47,59.26h-11Z"/><path class="cls-1" d="M367.27,340.71H215.46c-21.51,0-39.02-17.5-39.02-39.02s17.37-38.89,38.78-39.02c.26,.02,.52,.04,.79,.04l10.79,.22v-11.19c.19-21.35,17.62-38.67,39.02-38.67,6.47,0,12.63,1.55,18.33,4.6l10.73,5.74,4.2-11.42c8.49-23.09,30.7-38.6,55.27-38.6,29.14,0,54.19,21.74,58.26,50.57l1.2,8.51,8.58,.56c23.02,1.51,41.97,17.5,48.17,38.7l9.4-2.13,8.68-10.28c-9.42-23.78-30.67-41.8-56.65-46.41-8.76-35.12-40.79-60.7-77.64-60.7-29.69,0-56.86,16.67-70.62,42.42-5.78-1.8-11.83-2.74-17.9-2.74-29.81,0-54.63,21.78-59.37,50.27-28.93,4.36-51.17,29.39-51.17,59.51,0,33.19,27,60.18,60.18,60.18h142.73l9.08-21.16Z"/></svg>